<svg version="1.2" baseProfile="tiny-ps" xmlns="http://www.w3.org/2000/svg" viewBox="0 0 32 23" width="32" height="23">
	<title>about us</title>
	<style>
		tspan { white-space:pre }
		.shp0 { fill: #ffffff } 
	</style>
	<g id="about us">
		<g id="pics">
			<g id="1">
				<path id="USERS" class="shp0" d="M31.95 21.5C31.95 21.5 31.95 21.51 31.95 21.51C31.95 22.05 31.5 22.5 30.96 22.5L23.54 22.5C24.1 22.37 24.51 21.88 24.51 21.29C24.51 21.29 24.51 21.29 24.51 21.29L24.52 21.29C24.52 21.29 24.52 16.79 21.21 15.15C19.8 14.45 19.71 14.58 19.01 14.42L19.03 12.47C19.03 12.47 18.26 11.88 18.02 10.04C17.53 10.17 17.38 9.47 17.35 9.02C17.32 8.59 17.07 7.24 17.66 7.36C17.54 6.46 17.45 5.65 17.49 5.22C17.64 3.7 19.1 2.12 21.35 2.01C24 2.12 25.05 3.7 25.2 5.21C25.24 5.65 25.15 6.46 25.03 7.36C25.61 7.24 25.36 8.59 25.33 9.02C25.3 9.47 25.14 10.17 24.66 10.03C24.42 11.87 23.65 12.46 23.65 12.46L23.67 14.4C23.67 14.4 24.15 14.68 26.21 15.53C28.27 16.38 27.63 15.75 29.3 16.58C31.95 17.89 31.95 21.5 31.95 21.5L31.95 21.5ZM17.02 14.84C19.29 15.78 18.58 15.08 20.42 15.99C23.33 17.43 23.33 21.41 23.33 21.41L23.33 21.41C23.33 21.41 23.33 21.41 23.33 21.41C23.33 22.01 22.84 22.5 22.24 22.5L1.09 22.5C0.49 22.5 0 22.01 0 21.41C0 21.41 0 21.41 0 21.41L0 21.41C0 21.41 0 17.43 2.91 15.99C4.75 15.08 4.04 15.82 6.31 14.88C8.57 13.95 9.1 13.62 9.1 13.62L9.13 11.47C9.13 11.47 8.28 10.82 8.01 8.8C7.48 8.95 7.31 8.18 7.28 7.69C7.25 7.21 6.97 5.73 7.62 5.86C7.49 4.87 7.39 3.98 7.44 3.5C7.6 1.84 9.21 0.1 11.68 -0.02C14.59 0.1 15.75 1.84 15.91 3.5C15.96 3.97 15.85 4.87 15.72 5.86C16.37 5.73 16.08 7.21 16.05 7.68C16.02 8.18 15.85 8.95 15.32 8.79C15.05 10.82 14.21 11.46 14.21 11.46L14.23 13.6C14.23 13.6 14.76 13.91 17.02 14.84Z" />
			</g>
		</g>
	</g>
</svg>